<svg width="65" height="18" viewBox="0 0 65 18" fill="none" xmlns="http://www.w3.org/2000/svg">
<path d="M1 1L1.7 3.74757C2.4 6.49513 3.8 11.9903 5.2 11.7376C6.6 11.485 8 5.48458 9.4 4.30873C10.8 3.13288 12.2 6.78159 13.6 8.01008C15 9.23858 16.4 8.04685 17.8 8.77433C19.2 9.50181 20.6 12.1485 22 11.5819C23.4 11.0154 24.8 7.23561 26.2 7.35055C27.6 7.46549 29 11.4752 30.4 14.1143C31.8 16.7534 33.2 18.022 34.6 16.0113C36 14.0007 37.4 8.71075 38.8 7.70893C40.2 6.70712 41.6 9.99341 43 10.7423C44.4 11.4911 45.8 9.70249 47.2 10.0824C48.6 10.4622 50 13.0105 51.4 13.5506C52.8 14.0907 54.2 12.6225 55.6 12.7739C57 12.9252 58.4 14.6962 59.8 13.6932C61.2 12.6902 62.6 8.91329 63.3 7.02484L64 5.13638" stroke="#00CE08" stroke-width="1.5"/>
</svg>
