<svg width="14" height="14" viewBox="0 0 14 14" fill="none" xmlns="http://www.w3.org/2000/svg">
<path d="M13 13L9.96257 9.96257M9.96257 9.96257C10.4501 9.47505 10.8368 8.89627 11.1007 8.2593C11.3645 7.62232 11.5003 6.93961 11.5003 6.25015C11.5003 5.56069 11.3645 4.87798 11.1007 4.24101C10.8368 3.60403 10.4501 3.02526 9.96257 2.53773C9.47505 2.05021 8.89627 1.66349 8.2593 1.39964C7.62232 1.1358 6.93961 1 6.25015 1C5.56069 1 4.87798 1.1358 4.24101 1.39964C3.60403 1.66349 3.02526 2.05021 2.53773 2.53773C1.55314 3.52233 1 4.85772 1 6.25015C1 7.64258 1.55314 8.97797 2.53773 9.96257C3.52233 10.9472 4.85772 11.5003 6.25015 11.5003C7.64258 11.5003 8.97797 10.9472 9.96257 9.96257Z" stroke="#0B0B0B" stroke-opacity="0.3" stroke-width="1.4" stroke-linecap="round" stroke-linejoin="round"/>
</svg>
