<svg width="21" height="22" viewBox="0 0 21 22" fill="none" xmlns="http://www.w3.org/2000/svg">
<path d="M19.041 11.6599C18.8807 11.4774 18.7923 11.2429 18.7923 11C18.7923 10.7571 18.8807 10.5226 19.041 10.3401L20.3208 8.90029C20.4619 8.74298 20.5494 8.54504 20.571 8.33487C20.5925 8.1247 20.547 7.91311 20.4408 7.73044L18.4411 4.27092C18.336 4.08846 18.176 3.94384 17.9839 3.85766C17.7918 3.77148 17.5774 3.74814 17.3712 3.79098L15.4915 4.17093C15.2523 4.22035 15.0033 4.18052 14.7915 4.05894C14.5796 3.93737 14.4196 3.74247 14.3416 3.51102L13.7317 1.68127C13.6646 1.48267 13.5368 1.31018 13.3664 1.18818C13.1959 1.06617 12.9915 1.00082 12.7818 1.00136H8.78239C8.56436 0.989979 8.34859 1.05028 8.16804 1.17305C7.98749 1.29582 7.8521 1.47431 7.78253 1.68127L7.2226 3.51102C7.14462 3.74247 6.98461 3.93737 6.77278 4.05894C6.56095 4.18052 6.31195 4.22035 6.07276 4.17093L4.14302 3.79098C3.9476 3.76336 3.74838 3.7942 3.57045 3.87961C3.39252 3.96501 3.24385 4.10117 3.14316 4.27092L1.14343 7.73044C1.03461 7.91107 0.985675 8.12148 1.00363 8.33159C1.02159 8.5417 1.10552 8.74075 1.24342 8.90029L2.51324 10.3401C2.67354 10.5226 2.76195 10.7571 2.76195 11C2.76195 11.2429 2.67354 11.4774 2.51324 11.6599L1.24342 13.0997C1.10552 13.2593 1.02159 13.4583 1.00363 13.6684C0.985675 13.8785 1.03461 14.0889 1.14343 14.2696L3.14316 17.7291C3.24824 17.9115 3.40824 18.0562 3.60035 18.1423C3.79246 18.2285 4.00687 18.2519 4.21301 18.209L6.09276 17.8291C6.33194 17.7796 6.58095 17.8195 6.79278 17.9411C7.00461 18.0626 7.16461 18.2575 7.2426 18.489L7.85252 20.3187C7.92209 20.5257 8.05749 20.7042 8.23803 20.827C8.41858 20.9497 8.63435 21.01 8.85238 20.9986H12.8518C13.0615 20.9992 13.2659 20.9338 13.4364 20.8118C13.6068 20.6898 13.7346 20.5173 13.8017 20.3187L14.4116 18.489C14.4896 18.2575 14.6496 18.0626 14.8615 17.9411C15.0733 17.8195 15.3223 17.7796 15.5615 17.8291L17.4412 18.209C17.6474 18.2519 17.8618 18.2285 18.0539 18.1423C18.246 18.0562 18.406 17.9115 18.5111 17.7291L20.5108 14.2696C20.617 14.0869 20.6625 13.8753 20.641 13.6651C20.6194 13.455 20.5318 13.257 20.3908 13.0997L19.041 11.6599ZM17.5512 12.9997L18.3511 13.8996L17.0713 16.1193L15.8914 15.8793C15.1713 15.7321 14.4222 15.8545 13.7863 16.2231C13.1504 16.5917 12.672 17.181 12.4419 17.8791L12.0619 18.9989H9.50229L9.14234 17.8591C8.91223 17.161 8.43382 16.5717 7.79793 16.2031C7.16204 15.8345 6.41294 15.7121 5.69281 15.8593L4.51297 16.0993L3.21315 13.8896L4.01304 12.9897C4.50493 12.4398 4.77687 11.7278 4.77687 10.99C4.77687 10.2522 4.50493 9.54022 4.01304 8.99027L3.21315 8.0904L4.49298 5.89069L5.67282 6.13066C6.39294 6.27786 7.14204 6.15554 7.77793 5.78691C8.41382 5.41828 8.89223 4.829 9.12234 4.13093L9.50229 3.00109H12.0619L12.4419 4.14093C12.672 4.839 13.1504 5.42827 13.7863 5.79691C14.4222 6.16554 15.1713 6.28786 15.8914 6.14066L17.0713 5.90069L18.3511 8.12039L17.5512 9.02027C17.0648 9.56895 16.7963 10.2768 16.7963 11.01C16.7963 11.7432 17.0648 12.451 17.5512 12.9997ZM10.7821 7.00054C9.9911 7.00054 9.21785 7.23511 8.56014 7.67457C7.90243 8.11404 7.38981 8.73867 7.0871 9.46947C6.7844 10.2003 6.70519 11.0044 6.85951 11.7803C7.01383 12.5561 7.39474 13.2687 7.95408 13.828C8.51341 14.3874 9.22605 14.7683 10.0019 14.9226C10.7777 15.0769 11.5818 14.9977 12.3126 14.695C13.0435 14.3923 13.6681 13.8797 14.1075 13.222C14.547 12.5643 14.7816 11.791 14.7816 11C14.7816 9.93928 14.3602 8.922 13.6102 8.17196C12.8601 7.42191 11.8428 7.00054 10.7821 7.00054ZM10.7821 12.9997C10.3866 12.9997 9.99998 12.8824 9.67113 12.6627C9.34228 12.443 9.08597 12.1307 8.93461 11.7653C8.78326 11.3999 8.74366 10.9978 8.82082 10.6099C8.89798 10.222 9.08843 9.86565 9.3681 9.58598C9.64777 9.30631 10.0041 9.11586 10.392 9.0387C10.7799 8.96154 11.182 9.00114 11.5474 9.15249C11.9128 9.30385 12.2251 9.56016 12.4448 9.88901C12.6646 10.2179 12.7818 10.6045 12.7818 11C12.7818 11.5304 12.5712 12.039 12.1961 12.414C11.8211 12.789 11.3125 12.9997 10.7821 12.9997Z" fill="#0B0B0B" stroke="#FEF9DB" stroke-width="0.4"/>
</svg>
